<?xml version="1.0" encoding="UTF-8" standalone="no"?>
<!-- Created with Inkscape (http://www.inkscape.org/) -->

<svg
   width="96.659981mm"
   height="26.186325mm"
   viewBox="0 0 96.659981 26.186325"
   version="1.1"
   id="svg1"
   inkscape:version="1.4.2 (f4327f4, 2025-05-13)"
   sodipodi:docname="cora.svg"
   xmlns:inkscape="http://www.inkscape.org/namespaces/inkscape"
   xmlns:sodipodi="http://sodipodi.sourceforge.net/DTD/sodipodi-0.dtd"
   xmlns="http://www.w3.org/2000/svg"
   xmlns:svg="http://www.w3.org/2000/svg">
  <sodipodi:namedview
     id="namedview1"
     pagecolor="#ffffff"
     bordercolor="#000000"
     borderopacity="0.25"
     inkscape:showpageshadow="2"
     inkscape:pageopacity="0.0"
     inkscape:pagecheckerboard="0"
     inkscape:deskcolor="#d1d1d1"
     inkscape:document-units="mm"
     inkscape:zoom="1.4702523"
     inkscape:cx="181.2614"
     inkscape:cy="192.82404"
     inkscape:window-width="2560"
     inkscape:window-height="1369"
     inkscape:window-x="3432"
     inkscape:window-y="-8"
     inkscape:window-maximized="1"
     inkscape:current-layer="layer1"
     inkscape:clip-to-page="false" />
  <defs
     id="defs1">
    <linearGradient
       x1="0"
       y1="0"
       x2="1"
       y2="0"
       gradientUnits="userSpaceOnUse"
       gradientTransform="matrix(97.952066,15.973004,-15.973004,97.952066,55.892727,140.4144)"
       spreadMethod="pad"
       id="linearGradient81">
      <stop
         style="stop-opacity:1;stop-color:#8fd3f5"
         offset="0"
         id="stop80" />
      <stop
         style="stop-opacity:1;stop-color:#1d2088"
         offset="1"
         id="stop81" />
    </linearGradient>
    <linearGradient
       x1="0"
       y1="0"
       x2="1"
       y2="0"
       gradientUnits="userSpaceOnUse"
       gradientTransform="matrix(97.955256,15.973526,-15.973526,97.955256,56.008407,139.69349)"
       spreadMethod="pad"
       id="linearGradient83">
      <stop
         style="stop-opacity:1;stop-color:#8fd3f5"
         offset="0"
         id="stop82" />
      <stop
         style="stop-opacity:1;stop-color:#1d2088"
         offset="1"
         id="stop83" />
    </linearGradient>
    <linearGradient
       x1="0"
       y1="0"
       x2="1"
       y2="0"
       gradientUnits="userSpaceOnUse"
       gradientTransform="matrix(97.954462,15.973395,-15.973395,97.954462,55.867227,140.56177)"
       spreadMethod="pad"
       id="linearGradient85">
      <stop
         style="stop-opacity:1;stop-color:#8fd3f5"
         offset="0"
         id="stop84" />
      <stop
         style="stop-opacity:1;stop-color:#1d2088"
         offset="1"
         id="stop85" />
    </linearGradient>
    <linearGradient
       x1="0"
       y1="0"
       x2="1"
       y2="0"
       gradientUnits="userSpaceOnUse"
       gradientTransform="matrix(97.954684,15.973432,-15.973432,97.954684,53.282047,156.4145)"
       spreadMethod="pad"
       id="linearGradient87">
      <stop
         style="stop-opacity:1;stop-color:#8fd3f5"
         offset="0"
         id="stop86" />
      <stop
         style="stop-opacity:1;stop-color:#1d2088"
         offset="1"
         id="stop87" />
    </linearGradient>
    <linearGradient
       x1="0"
       y1="0"
       x2="1"
       y2="0"
       gradientUnits="userSpaceOnUse"
       gradientTransform="matrix(97.954351,15.973377,-15.973377,97.954351,53.892927,152.67008)"
       spreadMethod="pad"
       id="linearGradient89">
      <stop
         style="stop-opacity:1;stop-color:#8fd3f5"
         offset="0"
         id="stop88" />
      <stop
         style="stop-opacity:1;stop-color:#1d2088"
         offset="1"
         id="stop89" />
    </linearGradient>
    <linearGradient
       x1="0"
       y1="0"
       x2="1"
       y2="0"
       gradientUnits="userSpaceOnUse"
       gradientTransform="matrix(97.954083,15.973335,-15.973335,97.954083,54.650367,148.02527)"
       spreadMethod="pad"
       id="linearGradient91">
      <stop
         style="stop-opacity:1;stop-color:#8fd3f5"
         offset="0"
         id="stop90" />
      <stop
         style="stop-opacity:1;stop-color:#1d2088"
         offset="1"
         id="stop91" />
    </linearGradient>
    <linearGradient
       x1="0"
       y1="0"
       x2="1"
       y2="0"
       gradientUnits="userSpaceOnUse"
       gradientTransform="matrix(97.95442,15.973388,-15.973388,97.95442,55.554147,142.48132)"
       spreadMethod="pad"
       id="linearGradient93">
      <stop
         style="stop-opacity:1;stop-color:#8fd3f5"
         offset="0"
         id="stop92" />
      <stop
         style="stop-opacity:1;stop-color:#1d2088"
         offset="1"
         id="stop93" />
    </linearGradient>
  </defs>
  <g
     inkscape:label="Layer 1"
     inkscape:groupmode="layer"
     id="layer1"
     transform="translate(-55.033917,-137.77593)">
    <path
       id="path81"
       d="m 110.15157,149.45718 c 0,0.65972 0.5348,1.19468 1.19451,1.19468 v 0 c 0.65971,0 1.19467,-0.53496 1.19467,-1.19468 v 0 c 0,-0.65986 -0.53496,-1.19483 -1.19467,-1.19483 v 0 c -0.65971,0 -1.19451,0.53497 -1.19451,1.19483"
       style="fill:url(#linearGradient81);stroke:none;stroke-width:0.162851" />
    <path
       id="path83"
       d="m 114.68794,149.45718 c 0,0.65972 0.5348,1.19468 1.19466,1.19468 v 0 c 0.66004,0 1.19484,-0.53496 1.19484,-1.19468 v 0 c 0,-0.65986 -0.5348,-1.19483 -1.19484,-1.19483 v 0 c -0.65986,0 -1.19466,0.53497 -1.19466,1.19483"
       style="fill:url(#linearGradient83);stroke:none;stroke-width:0.162851" />
    <path
       id="path85"
       d="m 140.11476,144.70879 c -2.08562,1.11357 -4.18688,2.18073 -6.30182,3.20441 v 0 l -8.96916,15.57617 4.99951,-0.0145 9.33101,-16.10771 4.27939,16.06911 4.99935,-0.0142 -5.36658,-20.31691 z"
       style="fill:url(#linearGradient85);stroke:none;stroke-width:0.162851" />
    <path
       id="path87"
       d="m 85.367667,163.91424 c 0.57275,0.0303 1.16601,0.0497 1.80211,0.0479 v 0 c 4.32303,-0.0124 7.68328,-0.73282 9.85392,-2.68215 v 0 c -3.87731,0.99486 -7.76455,1.87295 -11.65603,2.63427"
       style="fill:url(#linearGradient87);stroke:none;stroke-width:0.162851" />
    <path
       id="path89"
       d="m 106.28273,158.67925 c -1.34417,0.41136 -2.69078,0.8035 -4.03821,1.18685 v 0 l -0.60547,3.68938 4.97134,-0.0143 0.85887,-5.23385 c -0.3954,0.12409 -0.79048,0.25014 -1.18653,0.37195"
       style="fill:url(#linearGradient89);stroke:none;stroke-width:0.162851" />
    <path
       id="path91"
       d="m 116.02152,155.40954 0.0117,0.0586 1.59235,7.86357 c 0.0174,0.0596 0.0345,0.11839 0.0521,0.17799 v 0 l 5.34231,-0.0153 -2.13643,-9.8751 c -1.32154,0.51314 -3.53402,1.30607 -4.86207,1.79022"
       style="fill:url(#linearGradient91);stroke:none;stroke-width:0.162851" />
    <path
       id="path93"
       d="m 151.4332,137.79578 -8.7226,3.88627 -0.12669,0.0492 -5.08518,0.0145 -1.84607,2.97251 c -3.65827,1.48731 -7.34439,2.84614 -11.04973,4.08429 v 0 l 0.18613,-1.13328 c 0.70727,-4.30984 -1.06536,-6.2103 -6.60749,-6.19451 v 0 l -12.9248,0.037 -2.14751,13.08683 c -1.11162,0.23043 -2.22356,0.44735 -3.335673,0.6571 v 0 l -0.6146,0.10732 1.392383,-8.3539 c 0.38693,-2.32111 -1.403123,-4.43426 -3.756313,-4.43426 v 0 h -0.12116 l -0.18761,1.09386 h -0.6843 l 0.18777,-1.09386 0.10944,-0.63854 h -1.7e-4 -1.79086 l -0.1096,0.63854 h -2.10517 l -0.18777,1.09386 h -0.6843 l 0.18777,-1.09386 0.1096,-0.63854 h -1.6e-4 -1.79087 l -0.10976,0.63854 h -2.09752 l -0.18776,1.09386 h -0.68447 l 0.18777,-1.09386 h -0.007 l 0.10943,-0.63854 h -1.79103 l -0.1096,0.63854 h -0.5063 c -1.86154,0 -3.40732,1.11601 -3.71348,2.95231 v 0 l -0.0409,0.24526 h 0.86409 l -0.10569,0.58219 h -0.0839 -0.77598 -0.80856 l -0.27994,1.82002 0.78201,0.0194 -0.32244,1.96071 h 0.84568 l -0.10569,0.58219 h -0.0114 l -0.007,0.0388 -10e-4,0.005 h -0.82956 -0.83543 l -0.27847,1.81269 0.80855,0.0199 -0.32961,2.00338 h 0.84536 l -0.10569,0.58219 h -0.005 -0.83608 -0.83298 l -0.2788,1.81367 0.80611,0.0198 -0.16562,0.99388 -0.96082,0.0811 c -0.57388,0.041 -1.20835,0.0783 -1.88499,0.11236 v 0 c -3.99619,0.22832 -13.32785,0.70727 -17.78084,0.48107 v 0 l 2.1809,-1.11488 c -0.0189,-0.11807 -0.0261,-0.24069 -0.005,-0.37016 v 0 l 0.003,-0.0168 1.48732,-9.06328 c 0.31299,-1.90633 1.17578,-2.63997 3.54704,-2.64665 v 0 l 11.55328,-0.0331 0.63431,-3.86542 -12.78133,0.0363 c -4.91401,0.014 -7.1094,1.56043 -7.78686,5.68739 v 0 l -1.76156,10.73446 c -0.35045,2.13481 -0.0547,3.56675 0.99095,4.45086 v 0 c 0.57275,0.484 1.36192,0.72176 2.19474,0.76508 v 0 c 4.66339,0.24199 11.8091,-0.23548 16.22512,-0.61492 v 0 c 3.43761,-0.29541 6.87995,-0.73609 10.32114,-1.31633 v 0 c 4.22288,-0.71182 10.16709,-1.76676 13.98089,-2.66797 v 0 c 1.235543,-0.29183 2.470443,-0.59506 3.704523,-0.91083 v 0 c 1.26714,-0.32407 2.53363,-0.65612 3.79865,-1.00512 v 0 c 0.46706,-0.12962 0.93363,-0.26365 1.40035,-0.3967 v 0 c 1.14566,-0.32619 2.28968,-0.66377 3.43257,-1.01114 v 0 l 0.12767,-0.0376 0.0734,-0.0229 0.4708,-3.27688 h -2.19099 c -0.80253,0 -1.45344,-0.65059 -1.45344,-1.45361 v 0 -2.18724 c 0,-0.80285 0.65091,-1.45377 1.45344,-1.45377 v 0 h 3.57782 l 0.23728,-1.91496 c -0.40843,-0.11367 -0.70987,-0.48464 -0.70987,-0.92955 v 0 c 0,-0.20047 0.0609,-0.38677 0.16529,-0.54115 v 0 c 0.17409,-0.25796 0.46901,-0.42781 0.80351,-0.42781 v 0 c 0.3384,0 0.63528,0.17393 0.80855,0.43644 v 0 c 0.10097,0.15275 0.16057,0.33564 0.16057,0.53252 v 0 c 0,0.46885 -0.33319,0.86002 -0.77565,0.94958 v 0 l 0.27538,1.89493 h 3.38517 c 0.80269,0 1.45344,0.65092 1.45344,1.45377 v 0 2.18724 c 0,0.80302 -0.65075,1.45361 -1.45344,1.45361 v 0 h -2.29977 l 0.38628,1.90763 c 1.88141,-0.62062 3.75794,-1.2673 5.62762,-1.94818 v 0 c 0.91962,-0.33466 1.83859,-0.67371 2.75511,-1.02352 v 0 c 3.52262,-1.34449 7.02065,-2.79972 10.48708,-4.37319 v 0 c 1.99688,-0.90626 3.98382,-1.84981 5.95838,-2.83571 v 0 l 2.38739,-1.20526 8.04156,-4.06019 0.57519,-0.29036 c 0.10341,-0.0524 0.16432,-0.17393 0.13565,-0.27652 v 0 c -0.0215,-0.0774 -0.0874,-0.12295 -0.16431,-0.12295 v 0 c -0.0287,0 -0.0586,0.006 -0.0886,0.0195 m -68.313523,19.82557 1.9262,-11.55717 h 10.71068 l -1.57623,9.45705 -0.12002,0.71964 c -3.65241,0.57584 -7.3032,1.04729 -10.94551,1.40898 v 0 z"
       style="fill:url(#linearGradient93);stroke:none;stroke-width:0.162851" />
  </g>
</svg>
